# Rocket OBJ Z-UP
v 0.1500 -1.0000 -0.0000
v 0.1386 -1.0000 -0.0574
v 0.1061 -1.0000 -0.1061
v 0.0574 -1.0000 -0.1386
v 0.0000 -1.0000 -0.1500
v -0.0574 -1.0000 -0.1386
v -0.1061 -1.0000 -0.1061
v -0.1386 -1.0000 -0.0574
v -0.1500 -1.0000 -0.0000
v -0.1386 -1.0000 0.0574
v -0.1061 -1.0000 0.1061
v -0.0574 -1.0000 0.1386
v -0.0000 -1.0000 0.1500
v 0.0574 -1.0000 0.1386
v 0.1061 -1.0000 0.1061
v 0.1386 -1.0000 0.0574
v 0.1500 1.0000 -0.0000
v 0.1386 1.0000 -0.0574
v 0.1061 1.0000 -0.1061
v 0.0574 1.0000 -0.1386
v 0.0000 1.0000 -0.1500
v -0.0574 1.0000 -0.1386
v -0.1061 1.0000 -0.1061
v -0.1386 1.0000 -0.0574
v -0.1500 1.0000 -0.0000
v -0.1386 1.0000 0.0574
v -0.1061 1.0000 0.1061
v -0.0574 1.0000 0.1386
v -0.0000 1.0000 0.1500
v 0.0574 1.0000 0.1386
v 0.1061 1.0000 0.1061
v 0.1386 1.0000 0.0574
v 0.0000 1.5000 -0.0000
v 0.0000 -1.0000 -0.0000
v 0.1500 -1.0000 -0.0000
v 0.1500 -0.6000 -0.0000
v 0.4500 -1.0000 -0.0000
v 0.0000 -1.0000 -0.1500
v 0.0000 -0.6000 -0.1500
v 0.0000 -1.0000 -0.4500
v -0.1500 -1.0000 -0.0000
v -0.1500 -0.6000 -0.0000
v -0.4500 -1.0000 -0.0000
v -0.0000 -1.0000 0.1500
v -0.0000 -0.6000 0.1500
v -0.0000 -1.0000 0.4500
f 1 2 18
f 1 18 17
f 2 3 19
f 2 19 18
f 3 4 20
f 3 20 19
f 4 5 21
f 4 21 20
f 5 6 22
f 5 22 21
f 6 7 23
f 6 23 22
f 7 8 24
f 7 24 23
f 8 9 25
f 8 25 24
f 9 10 26
f 9 26 25
f 10 11 27
f 10 27 26
f 11 12 28
f 11 28 27
f 12 13 29
f 12 29 28
f 13 14 30
f 13 30 29
f 14 15 31
f 14 31 30
f 15 16 32
f 15 32 31
f 16 1 17
f 16 17 32
f 17 18 33
f 18 19 33
f 19 20 33
f 20 21 33
f 21 22 33
f 22 23 33
f 23 24 33
f 24 25 33
f 25 26 33
f 26 27 33
f 27 28 33
f 28 29 33
f 29 30 33
f 30 31 33
f 31 32 33
f 32 17 33
f 34 2 1
f 34 3 2
f 34 4 3
f 34 5 4
f 34 6 5
f 34 7 6
f 34 8 7
f 34 9 8
f 34 10 9
f 34 11 10
f 34 12 11
f 34 13 12
f 34 14 13
f 34 15 14
f 34 16 15
f 34 1 16
f 35 37 36
f 35 36 37
f 38 40 39
f 38 39 40
f 41 43 42
f 41 42 43
f 44 46 45
f 44 45 46
